<svg xmlns="http://www.w3.org/2000/svg" version="1.1" xmlns:xlink="http://www.w3.org/1999/xlink" xmlns:svgjs="http://svgjs.com/svgjs" width="1440" height="250" preserveAspectRatio="none" viewBox="0 0 1440 250"><g mask="url(&quot;#SvgjsMask2068&quot;)" fill="none"><rect width="1440" height="250" x="0" y="0" fill="rgba(0, 59, 2, 1)"></rect><g mask="url(&quot;#SvgjsMask2069&quot;)"><path d="M330 150L350 170M190 130L210 150M170 130L190 150M150 130L170 150M250 130L270 130M370 150L390 170M410 150L430 130L450 130L470 130M-10 130L10 130L30 130L50 130L70 130L90 130L110 130L130 130L150 130L170 130L190 130L210 130L230 130L250 130L270 150L290 150L310 150L330 150L350 150L370 150L390 150L410 150L430 150L450 150L470 150L490 150L510 130L530 130" stroke="rgba(243, 245, 247, 1)" stroke-width="3.33"></path><path d="M525 130 a5 5 0 1 0 10 0 a5 5 0 1 0 -10 0zM345 170 a5 5 0 1 0 10 0 a5 5 0 1 0 -10 0zM205 150 a5 5 0 1 0 10 0 a5 5 0 1 0 -10 0zM185 150 a5 5 0 1 0 10 0 a5 5 0 1 0 -10 0zM165 150 a5 5 0 1 0 10 0 a5 5 0 1 0 -10 0zM265 130 a5 5 0 1 0 10 0 a5 5 0 1 0 -10 0zM385 170 a5 5 0 1 0 10 0 a5 5 0 1 0 -10 0zM465 130 a5 5 0 1 0 10 0 a5 5 0 1 0 -10 0z" fill="rgba(243, 245, 247, 1)"></path><path d="M190 110L210 110L230 110L250 110L270 110L290 110L310 110L330 130L350 130M810 70L830 90M590 70L610 50M610 70L630 90L650 90L670 90M650 70L670 50M490 90L510 70L530 50L550 50L570 50L590 50M510 90L530 90L550 90M390 110L410 90M450 110L470 90L490 70L510 50M570 70L590 90L610 110L630 110L650 110L670 110L690 110L710 110M730 70L750 90L770 90L790 90L810 90M-10 110L10 110L30 110L50 110L70 110L90 110L110 110L130 110L150 110L170 110L190 110L210 90L230 90L250 90L270 90L290 90L310 90L330 110L350 110L370 110L390 110L410 110L430 110L450 110L470 110L490 90L510 90L530 70L550 70L570 70L590 70L610 70L630 70L650 70L670 70L690 70L710 70L730 70L750 70L770 70L790 70L810 70L830 70L850 50L870 50" stroke="rgba(243, 196, 0, 1)" stroke-width="3.33"></path><path d="M865 50 a5 5 0 1 0 10 0 a5 5 0 1 0 -10 0zM345 130 a5 5 0 1 0 10 0 a5 5 0 1 0 -10 0zM825 90 a5 5 0 1 0 10 0 a5 5 0 1 0 -10 0zM605 50 a5 5 0 1 0 10 0 a5 5 0 1 0 -10 0zM665 90 a5 5 0 1 0 10 0 a5 5 0 1 0 -10 0zM665 50 a5 5 0 1 0 10 0 a5 5 0 1 0 -10 0zM585 50 a5 5 0 1 0 10 0 a5 5 0 1 0 -10 0zM545 90 a5 5 0 1 0 10 0 a5 5 0 1 0 -10 0zM405 90 a5 5 0 1 0 10 0 a5 5 0 1 0 -10 0zM505 50 a5 5 0 1 0 10 0 a5 5 0 1 0 -10 0zM705 110 a5 5 0 1 0 10 0 a5 5 0 1 0 -10 0zM805 90 a5 5 0 1 0 10 0 a5 5 0 1 0 -10 0z" fill="rgba(243, 196, 0, 1)"></path><path d="M310 190L330 170M570 210L590 190M510 210L530 190L550 190L570 190L590 170L610 170L630 170L650 170M450 210L470 190L490 190L510 190L530 170L550 170L570 170L590 150L610 150M130 170L150 150M110 170L130 150M650 190L670 210L690 210L710 210L730 210L750 210L770 210L790 210M630 190L650 210M-10 150L10 150L30 150L50 150L70 150L90 170L110 170L130 170L150 170L170 170L190 170L210 170L230 150L250 150L270 170L290 170L310 190L330 190L350 190L370 190L390 190L410 190L430 190L450 210L470 210L490 210L510 210L530 210L550 210L570 210L590 210L610 190L630 190L650 190L670 190" stroke="rgba(243, 196, 0, 1)" stroke-width="3.33"></path><path d="M665 190 a5 5 0 1 0 10 0 a5 5 0 1 0 -10 0zM325 170 a5 5 0 1 0 10 0 a5 5 0 1 0 -10 0zM585 190 a5 5 0 1 0 10 0 a5 5 0 1 0 -10 0zM645 170 a5 5 0 1 0 10 0 a5 5 0 1 0 -10 0zM605 150 a5 5 0 1 0 10 0 a5 5 0 1 0 -10 0zM145 150 a5 5 0 1 0 10 0 a5 5 0 1 0 -10 0zM125 150 a5 5 0 1 0 10 0 a5 5 0 1 0 -10 0zM785 210 a5 5 0 1 0 10 0 a5 5 0 1 0 -10 0zM645 210 a5 5 0 1 0 10 0 a5 5 0 1 0 -10 0z" fill="rgba(243, 196, 0, 1)"></path><path d="M270 70L290 50L310 50L330 50L350 50M350 70L370 90L390 90M370 70L390 50M230 70L250 50M330 70L350 90M-10 90L10 90L30 90L50 90L70 90L90 90L110 90L130 90L150 90L170 90L190 90L210 70L230 70L250 70L270 70L290 70L310 70L330 70L350 70L370 70L390 70" stroke="rgba(243, 245, 247, 1)" stroke-width="3.33"></path><path d="M385 70 a5 5 0 1 0 10 0 a5 5 0 1 0 -10 0zM345 50 a5 5 0 1 0 10 0 a5 5 0 1 0 -10 0zM385 90 a5 5 0 1 0 10 0 a5 5 0 1 0 -10 0zM385 50 a5 5 0 1 0 10 0 a5 5 0 1 0 -10 0zM245 50 a5 5 0 1 0 10 0 a5 5 0 1 0 -10 0zM345 90 a5 5 0 1 0 10 0 a5 5 0 1 0 -10 0z" fill="rgba(243, 245, 247, 1)"></path><path d="M150 190L170 210M110 190L130 210M250 190L270 210L290 210M230 190L250 210M10 170L30 190L50 210M-10 170L10 170L30 170L50 170L70 170L90 190L110 190L130 190L150 190L170 190L190 190L210 190L230 190L250 190L270 190L290 190L310 210L330 210L350 210L370 210L390 210L410 210L430 210" stroke="rgba(243, 245, 247, 1)" stroke-width="3.33"></path><path d="M425 210 a5 5 0 1 0 10 0 a5 5 0 1 0 -10 0zM165 210 a5 5 0 1 0 10 0 a5 5 0 1 0 -10 0zM125 210 a5 5 0 1 0 10 0 a5 5 0 1 0 -10 0zM285 210 a5 5 0 1 0 10 0 a5 5 0 1 0 -10 0zM245 210 a5 5 0 1 0 10 0 a5 5 0 1 0 -10 0zM45 210 a5 5 0 1 0 10 0 a5 5 0 1 0 -10 0z" fill="rgba(243, 245, 247, 1)"></path><path d="M50 70L70 50L90 50L110 50M170 70L190 50M150 70L170 50M-10 70L10 70L30 70L50 70L70 70L90 70L110 70L130 70L150 70L170 70L190 70L210 50" stroke="rgba(243, 196, 0, 1)" stroke-width="3.33"></path><path d="M205 50 a5 5 0 1 0 10 0 a5 5 0 1 0 -10 0zM105 50 a5 5 0 1 0 10 0 a5 5 0 1 0 -10 0zM185 50 a5 5 0 1 0 10 0 a5 5 0 1 0 -10 0zM165 50 a5 5 0 1 0 10 0 a5 5 0 1 0 -10 0z" fill="rgba(243, 196, 0, 1)"></path></g></g><defs><mask id="SvgjsMask2068"><rect width="1440" height="250" fill="#ffffff"></rect></mask><mask id="SvgjsMask2069"><rect width="1440" height="250" fill="white"></rect><path d="M527.5 130 a2.5 2.5 0 1 0 5 0 a2.5 2.5 0 1 0 -5 0zM347.5 170 a2.5 2.5 0 1 0 5 0 a2.5 2.5 0 1 0 -5 0zM207.5 150 a2.5 2.5 0 1 0 5 0 a2.5 2.5 0 1 0 -5 0zM187.5 150 a2.5 2.5 0 1 0 5 0 a2.5 2.5 0 1 0 -5 0zM167.5 150 a2.5 2.5 0 1 0 5 0 a2.5 2.5 0 1 0 -5 0zM267.5 130 a2.5 2.5 0 1 0 5 0 a2.5 2.5 0 1 0 -5 0zM387.5 170 a2.5 2.5 0 1 0 5 0 a2.5 2.5 0 1 0 -5 0zM467.5 130 a2.5 2.5 0 1 0 5 0 a2.5 2.5 0 1 0 -5 0z" fill="black"></path><path d="M867.5 50 a2.5 2.5 0 1 0 5 0 a2.5 2.5 0 1 0 -5 0zM347.5 130 a2.5 2.5 0 1 0 5 0 a2.5 2.5 0 1 0 -5 0zM827.5 90 a2.5 2.5 0 1 0 5 0 a2.5 2.5 0 1 0 -5 0zM607.5 50 a2.5 2.5 0 1 0 5 0 a2.5 2.5 0 1 0 -5 0zM667.5 90 a2.5 2.5 0 1 0 5 0 a2.5 2.5 0 1 0 -5 0zM667.5 50 a2.5 2.5 0 1 0 5 0 a2.5 2.5 0 1 0 -5 0zM587.5 50 a2.5 2.5 0 1 0 5 0 a2.5 2.5 0 1 0 -5 0zM547.5 90 a2.5 2.5 0 1 0 5 0 a2.5 2.5 0 1 0 -5 0zM407.5 90 a2.5 2.5 0 1 0 5 0 a2.5 2.5 0 1 0 -5 0zM507.5 50 a2.5 2.5 0 1 0 5 0 a2.5 2.5 0 1 0 -5 0zM707.5 110 a2.5 2.5 0 1 0 5 0 a2.5 2.5 0 1 0 -5 0zM807.5 90 a2.5 2.5 0 1 0 5 0 a2.5 2.5 0 1 0 -5 0z" fill="black"></path><path d="M667.5 190 a2.5 2.5 0 1 0 5 0 a2.5 2.5 0 1 0 -5 0zM327.5 170 a2.5 2.5 0 1 0 5 0 a2.5 2.5 0 1 0 -5 0zM587.5 190 a2.5 2.5 0 1 0 5 0 a2.5 2.5 0 1 0 -5 0zM647.5 170 a2.5 2.5 0 1 0 5 0 a2.5 2.5 0 1 0 -5 0zM607.5 150 a2.5 2.5 0 1 0 5 0 a2.5 2.5 0 1 0 -5 0zM147.5 150 a2.5 2.5 0 1 0 5 0 a2.5 2.5 0 1 0 -5 0zM127.5 150 a2.5 2.5 0 1 0 5 0 a2.5 2.5 0 1 0 -5 0zM787.5 210 a2.5 2.5 0 1 0 5 0 a2.5 2.5 0 1 0 -5 0zM647.5 210 a2.5 2.5 0 1 0 5 0 a2.5 2.5 0 1 0 -5 0z" fill="black"></path><path d="M387.5 70 a2.5 2.5 0 1 0 5 0 a2.5 2.5 0 1 0 -5 0zM347.5 50 a2.5 2.5 0 1 0 5 0 a2.5 2.5 0 1 0 -5 0zM387.5 90 a2.5 2.5 0 1 0 5 0 a2.5 2.5 0 1 0 -5 0zM387.5 50 a2.5 2.5 0 1 0 5 0 a2.5 2.5 0 1 0 -5 0zM247.5 50 a2.5 2.5 0 1 0 5 0 a2.5 2.5 0 1 0 -5 0zM347.5 90 a2.5 2.5 0 1 0 5 0 a2.5 2.5 0 1 0 -5 0z" fill="black"></path><path d="M427.5 210 a2.5 2.5 0 1 0 5 0 a2.5 2.5 0 1 0 -5 0zM167.5 210 a2.5 2.5 0 1 0 5 0 a2.5 2.5 0 1 0 -5 0zM127.5 210 a2.5 2.5 0 1 0 5 0 a2.5 2.5 0 1 0 -5 0zM287.5 210 a2.5 2.5 0 1 0 5 0 a2.5 2.5 0 1 0 -5 0zM247.5 210 a2.5 2.5 0 1 0 5 0 a2.5 2.5 0 1 0 -5 0zM47.5 210 a2.5 2.5 0 1 0 5 0 a2.5 2.5 0 1 0 -5 0z" fill="black"></path><path d="M207.5 50 a2.5 2.5 0 1 0 5 0 a2.5 2.5 0 1 0 -5 0zM107.5 50 a2.5 2.5 0 1 0 5 0 a2.5 2.5 0 1 0 -5 0zM187.5 50 a2.5 2.5 0 1 0 5 0 a2.5 2.5 0 1 0 -5 0zM167.5 50 a2.5 2.5 0 1 0 5 0 a2.5 2.5 0 1 0 -5 0z" fill="black"></path></mask></defs></svg>