<?xml version="1.0" encoding="UTF-8" standalone="no"?>
<!-- Created with Inkscape (http://www.inkscape.org/) -->

<svg
   width="1440"
   height="250"
   viewBox="0 0 1388.9952 241.145"
   version="1.1"
   id="svg245"
   inkscape:version="1.1 (c68e22c387, 2021-05-23)"
   sodipodi:docname="header-img.svg"
   xmlns:inkscape="http://www.inkscape.org/namespaces/inkscape"
   xmlns:sodipodi="http://sodipodi.sourceforge.net/DTD/sodipodi-0.dtd"
   xmlns="http://www.w3.org/2000/svg"
   xmlns:svg="http://www.w3.org/2000/svg">
  <sodipodi:namedview
     id="namedview247"
     pagecolor="#ffffff"
     bordercolor="#666666"
     borderopacity="1.0"
     inkscape:pageshadow="2"
     inkscape:pageopacity="0"
     inkscape:pagecheckerboard="true"
     inkscape:document-units="px"
     showgrid="false"
     units="px"
     scale-x="0.96458"
     inkscape:lockguides="true"
     showborder="true"
     inkscape:zoom="0.73406285"
     inkscape:cx="734.26955"
     inkscape:cy="172.32857"
     inkscape:window-width="1920"
     inkscape:window-height="1009"
     inkscape:window-x="-8"
     inkscape:window-y="-8"
     inkscape:window-maximized="1"
     inkscape:current-layer="layer2" />
  <defs
     id="defs242">
    <rect
       x="972.66876"
       y="50.404403"
       width="418.22032"
       height="160.74918"
       id="rect3851" />
    <style
       id="style783">.a{fill:#fff;}.b{fill:#87cce3;}.c{fill:#211715;}.d{fill:#7cc67a;}.e{fill:#957f6e;}.f{fill:#d9d9d9;}</style>
  </defs>
  <g
     inkscape:groupmode="layer"
     id="layer2"
     inkscape:label="レイヤー 2"
     style="opacity:1">
    <rect
       style="fill:#d5e5ff;stroke-width:0.96458"
       id="rect29513"
       width="1408.6392"
       height="253.60762"
       x="-5.2561169"
       y="-3.9420874" />
  </g>
  <g
     inkscape:label="レイヤー 1"
     inkscape:groupmode="layer"
     id="layer1"
     style="display:inline"
     sodipodi:insensitive="true">
    <g
       id="g1140"
       transform="matrix(1.7415296,0,0,0.96458,23.381645,18.458448)">
      <path
         class="a"
         d="m 232.672,207.4 c 0,-10.488 -0.477,-85.214 -0.477,-96.765 H 130.567 c 0,1.583 0.129,77.71 0.129,96.935"
         id="path787" />
      <path
         class="a"
         d="m 226.371,110.637 c 0,-2.691 -0.045,-6.728 -0.045,-8.389 h -90.409 c 0,1.457 0.009,7.235 0.009,8.389"
         id="path789" />
      <path
         class="a"
         d="m 278.207,207.555 c 0,-11.532 -0.242,-118.678 -0.242,-131.379 h -84.507 c 0,3.945 0.142,129.819 0.142,131.122"
         id="path791" />
      <path
         class="a"
         d="m 370.138,207.384 c 0,-11.557 -0.525,-72.035 -0.525,-84.764 H 248.255 c 0,1.746 0.142,63.767 0.142,84.952"
         id="path793" />
      <path
         class="a"
         d="m 379.252,46.635 c 0,-2.691 -0.006,-6.807 -0.006,-8.468 -21.278,0 -60.848,-0.006 -65.66,-0.006 v 8.493"
         id="path795" />
      <path
         class="a"
         d="m 386.711,207.594 c 0,-6.539 -0.52,-148.057 -0.52,-160.678 h -80.064 c 0,0.919 0.039,117.957 0.077,160.762"
         id="path797" />
      <path
         class="a"
         d="m 94.341,207.4 c 0,-10.488 -0.477,-68.206 -0.477,-79.757 h -78.95 c 0,1.583 0.129,71.97 0.129,79.949"
         id="path799" />
      <path
         class="a"
         d="m 115.154,207.568 c 0,-4.889 -0.069,-146.258 -0.074,-150.7 H 36.13 c 0,0.7 0.025,123 0.053,150.673"
         id="path801" />
      <path
         class="a"
         d="m 482.909,206.564 c 0,-12.22 -0.477,-98.784 -0.477,-112.243 h -78.907 c 0,1.846 0.129,90.043 0.129,112.441"
         id="path803" />
      <path
         class="b"
         d="m 403.651,170.39 c 0,-1.621 0,-74.151 0,-76.069 h 78.913 c 0,1.918 0,74.448 0,76.069"
         id="path805" />
      <path
         class="b"
         d="m 335.148,134.569 c -1.114,0 -10.307,0.023 -12.17,0.023 v 11.9 H 335.1 c 0,-1.985 0.048,-11.36 0.048,-11.923 z"
         id="path807" />
      <path
         class="b"
         d="m 357.014,134.569 c -1.115,0 -10.308,0.023 -12.17,0.023 v 11.9 h 12.118 c 0,-1.985 0.052,-11.36 0.052,-11.923 z"
         id="path809" />
      <path
         class="b"
         d="m 40.236,142.038 c -1.012,0 -9.354,0.02 -11.044,0.02 v 10.8 h 11 c -0.003,-1.802 0.044,-10.31 0.044,-10.82 z"
         id="path811" />
      <path
         class="b"
         d="m 60.078,142.038 c -1.011,0 -9.354,0.02 -11.044,0.02 v 10.8 h 11 c -0.002,-1.802 0.044,-10.31 0.044,-10.82 z"
         id="path813" />
      <path
         class="b"
         d="m 79.921,141.89 c -1.012,0 -9.354,0.02 -11.044,0.02 v 10.8 h 11 c -0.003,-1.802 0.044,-10.31 0.044,-10.82 z"
         id="path815" />
      <path
         class="b"
         d="m 40.236,162.447 c -1.012,0 -9.354,0.021 -11.044,0.021 v 10.8 h 11 c -0.003,-1.802 0.044,-10.31 0.044,-10.821 z"
         id="path817" />
      <path
         class="b"
         d="m 60.078,162.447 c -1.011,0 -9.354,0.021 -11.044,0.021 v 10.8 h 11 c -0.002,-1.802 0.044,-10.31 0.044,-10.821 z"
         id="path819" />
      <path
         class="b"
         d="m 79.921,162.3 c -1.012,0 -9.354,0.021 -11.044,0.021 v 10.8 h 11 c -0.003,-1.803 0.044,-10.311 0.044,-10.821 z"
         id="path821" />
      <path
         class="b"
         d="m 386.315,46.916 c -6.5,0 -69.339,0.023 -80.188,0.023 v 11.8 h 80.2 c -0.002,-1.969 -0.012,-11.265 -0.012,-11.823 z"
         id="path823" />
      <path
         class="b"
         d="m 36.234,127.192 c 0,-0.764 0,-69.418 0,-70.322 h 11.338 c 0,0.9 0,69.558 0,70.322"
         id="path825" />
      <path
         class="b"
         d="M 58.911,127.192 V 56.87 H 70.25 v 70.322"
         id="path827" />
      <path
         class="b"
         d="m 232.2,121.781 c -5.945,0 -91.528,0.021 -101.459,0.021 v 10.8 h 101.47"
         id="path829" />
      <path
         class="b"
         d="m 232.2,142.191 c -5.945,0 -91.528,0.02 -101.459,0.02 v 10.8 h 101.47"
         id="path831" />
      <path
         class="b"
         d="m 232.2,162.6 c -5.945,0 -91.528,0.02 -101.459,0.02 v 10.8 h 101.47"
         id="path833" />
      <path
         class="c"
         d="m 228.371,110.637 c 0,-2.8 -0.043,-5.593 -0.045,-8.389 a 2.03,2.03 0 0 0 -2,-2 h -90.409 a 2.03,2.03 0 0 0 -2,2 c 0,2.8 0.009,5.593 0.009,8.389 0,2.573 4,2.578 4,0 0,-2.8 -0.008,-5.593 -0.009,-8.389 l -2,2 h 90.409 l -2,-2 c 0,2.8 0.043,5.592 0.045,8.389 0,2.573 4,2.578 4,0 z"
         id="path835" />
      <path
         class="c"
         d="m 234.672,207.4 c 0,-11.332 -0.1,-22.664 -0.161,-33.995 q -0.13,-23.7 -0.257,-47.392 c -0.025,-5.126 -0.058,-10.252 -0.059,-15.378 a 2.028,2.028 0 0 0 -2,-2 H 130.567 a 2.029,2.029 0 0 0 -2,2 q 0,14.135 0.044,28.27 0.039,24.624 0.07,49.248 0.01,9.709 0.015,19.417 c 0,2.574 4,2.578 4,0 q 0,-20.441 -0.043,-40.881 -0.033,-22.842 -0.07,-45.684 -0.007,-5.186 -0.016,-10.37 l -2,2 H 232.2 l -2,-2 c 0,11.584 0.1,23.169 0.161,34.753 q 0.129,23.589 0.257,47.18 c 0.025,4.944 0.058,9.888 0.059,14.832 0,2.574 4,2.578 4,0 z"
         id="path837" />
      <path
         class="c"
         d="m 381.252,46.635 q 0,-4.235 -0.006,-8.468 a 2.029,2.029 0 0 0 -2,-2 q -29.04,0 -58.081,-0.005 h -7.579 a 2.029,2.029 0 0 0 -2,2 v 8.493 c 0,2.574 4,2.578 4,0 v -8.494 l -2,2 q 24.823,0 49.647,0 h 16.013 l -2,-2 q 0,4.233 0.006,8.468 c 0,2.573 4,2.578 4,0 z"
         id="path839" />
      <path
         class="c"
         d="m 128.764,129.047 v 33.783 c 0,2.574 4,2.579 4,0 v -33.783 c 0,-2.574 -4,-2.578 -4,0 z"
         id="path841" />
      <path
         class="c"
         d="m 45.573,56.87 v 64.182 c 0,2.574 4,2.578 4,0 V 56.87 c 0,-2.574 -4,-2.579 -4,0 z"
         id="path843" />
      <path
         class="c"
         d="m 56.911,56.87 v 64.182 c 0,2.574 4,2.578 4,0 V 56.87 c 0,-2.574 -4,-2.579 -4,0 z"
         id="path845" />
      <path
         class="c"
         d="m 68.25,56.87 v 64.182 c 0,2.574 4,2.578 4,0 V 56.87 c 0,-2.574 -4,-2.579 -4,0 z"
         id="path847" />
      <path
         class="c"
         d="M 86.749,57.816 V 82.99 c 0,2.574 4,2.578 4,0 V 57.816 c 0,-2.574 -4,-2.578 -4,0 z"
         id="path849" />
      <path
         class="c"
         d="m 98.485,57.816 v 36.889 c 0,2.574 4,2.578 4,0 V 57.816 c 0,-2.574 -4,-2.578 -4,0 z"
         id="path851" />
      <path
         class="c"
         d="m 117.154,171.89 q 0,-6.445 -0.007,-12.891 -0.008,-13.464 -0.017,-26.927 -0.009,-15.968 -0.02,-31.935 -0.009,-13.958 -0.019,-27.916 0,-7.423 -0.01,-14.848 v -0.5 a 2.028,2.028 0 0 0 -2,-2 H 36.13 a 2.028,2.028 0 0 0 -2,2 q 0,22.659 0.035,45.32 0.009,9.431 0.018,18.862 c 0,2.574 4,2.578 4,0 q -0.03,-29.571 -0.05,-59.142 0,-2.52 0,-5.04 l -2,2 h 78.95 l -2,-2 q 0.007,6.339 0.009,12.679 l 0.018,26.818 0.021,31.929 0.018,28.013 q 0,7.523 0.008,15.046 v 0.535 c 0,2.574 4,2.578 4,0 z"
         id="path853" />
      <path
         class="c"
         d="m 367.3,209.4 c 2.574,0 2.578,-4 0,-4 -2.578,0 -2.578,4 0,4 z"
         id="path855" />
      <path
         class="c"
         d="m 372.138,207.384 c 0,-10.078 -0.106,-20.156 -0.178,-30.234 q -0.144,-20.1 -0.282,-40.191 c -0.029,-4.779 -0.064,-9.559 -0.065,-14.339 a 2.029,2.029 0 0 0 -2,-2 H 248.255 a 2.03,2.03 0 0 0 -2,2 c 0,7.9 0.032,15.794 0.048,23.691 q 0.043,21.222 0.076,42.443 0.014,9.41 0.018,18.818 c 0,2.574 4,2.578 4,0 q 0,-18.791 -0.048,-37.583 -0.034,-19.276 -0.077,-38.553 c -0.006,-2.938 -0.017,-5.877 -0.017,-8.816 l -2,2 h 121.358 l -2,-2 c 0,10.358 0.105,20.715 0.178,31.072 q 0.143,19.978 0.282,39.958 c 0.029,4.578 0.065,9.156 0.065,13.734 0,2.574 4,2.579 4,0 z"
         id="path857" />
      <path
         class="c"
         d="m 280.207,113.725 c 0,-12.517 -0.239,-25.032 -0.242,-37.549 a 2.029,2.029 0 0 0 -2,-2 h -84.507 a 2.028,2.028 0 0 0 -2,2 c 0,6 0.134,12 0.142,18 0,2.574 4,2.578 4,0 -0.008,-6 -0.14,-12 -0.142,-18 l -2,2 h 84.507 l -2,-2 c 0,12.517 0.239,25.032 0.242,37.549 0,2.573 4,2.578 4,0 z"
         id="path859" />
      <path
         class="c"
         d="m 94.341,209.4 c 2.574,0 2.578,-4 0,-4 -2.578,0 -2.578,4 0,4 z"
         id="path861" />
      <path
         class="c"
         d="m 96.341,207.4 c 0,-9.444 -0.1,-18.888 -0.161,-28.331 q -0.131,-19.088 -0.257,-38.174 c -0.026,-4.417 -0.058,-8.835 -0.059,-13.252 a 2.028,2.028 0 0 0 -2,-2 h -78.95 a 2.029,2.029 0 0 0 -2,2 c 0,11.922 0.082,23.844 0.113,35.766 q 0.011,4.258 0.016,8.516 c 0,2.574 4,2.578 4,0 0,-13.02 -0.07,-26.04 -0.113,-39.06 -0.006,-1.74 -0.015,-3.482 -0.016,-5.222 l -2,2 h 78.95 l -2,-2 c 0,9.7 0.1,19.393 0.162,29.089 q 0.129,18.981 0.257,37.961 c 0.025,4.235 0.058,8.471 0.058,12.707 0,2.574 4,2.578 4,0 z"
         id="path863" />
      <path
         class="c"
         d="m 40.236,140.038 c -3.682,0 -7.363,0.02 -11.044,0.02 a 2.029,2.029 0 0 0 -2,2 v 10.8 a 2.029,2.029 0 0 0 2,2 h 11 a 2.029,2.029 0 0 0 2,-2 c 0,-3.607 0.044,-7.215 0.047,-10.822 a 2,2 0 0 0 -4,0 c 0,3.607 -0.046,7.215 -0.047,10.822 l 2,-2 h -11 l 2,2 v -10.8 l -2,2 c 3.681,0 7.362,-0.02 11.044,-0.02 a 2,2 0 0 0 0,-4 z"
         id="path865" />
      <path
         class="c"
         d="m 60.078,140.038 c -3.681,0 -7.362,0.02 -11.044,0.02 a 2.029,2.029 0 0 0 -2,2 v 10.8 a 2.03,2.03 0 0 0 2,2 h 11 a 2.03,2.03 0 0 0 2,-2 c 0,-3.607 0.044,-7.215 0.046,-10.822 a 2,2 0 0 0 -4,0 c 0,3.607 -0.046,7.215 -0.046,10.822 l 2,-2 h -11 l 2,2 v -10.8 l -2,2 c 3.682,0 7.363,-0.02 11.044,-0.02 a 2,2 0 0 0 0,-4 z"
         id="path867" />
      <path
         class="c"
         d="m 79.921,139.89 c -3.681,0 -7.363,0.02 -11.044,0.02 a 2.029,2.029 0 0 0 -2,2 v 10.8 a 2.029,2.029 0 0 0 2,2 h 11 a 2.028,2.028 0 0 0 2,-2 c 0,-3.607 0.044,-7.215 0.047,-10.822 a 2,2 0 0 0 -4,0 c 0,3.607 -0.046,7.215 -0.047,10.822 l 2,-2 h -11 l 2,2 v -10.8 l -2,2 c 3.681,0 7.363,-0.02 11.044,-0.02 a 2,2 0 0 0 0,-4 z"
         id="path869" />
      <path
         class="c"
         d="m 40.236,160.447 c -3.682,0 -7.363,0.02 -11.044,0.021 a 2.029,2.029 0 0 0 -2,2 v 10.8 a 2.029,2.029 0 0 0 2,2 h 11 a 2.03,2.03 0 0 0 2,-2 c 0,-3.608 0.044,-7.215 0.047,-10.823 a 2,2 0 0 0 -4,0 c 0,3.608 -0.046,7.215 -0.047,10.823 l 2,-2 h -11 l 2,2 v -10.8 l -2,2 c 3.681,0 7.362,-0.02 11.044,-0.021 a 2,2 0 0 0 0,-4 z"
         id="path871" />
      <path
         class="c"
         d="m 60.078,160.447 c -3.681,0 -7.362,0.02 -11.044,0.021 a 2.029,2.029 0 0 0 -2,2 v 10.8 a 2.03,2.03 0 0 0 2,2 h 11 a 2.03,2.03 0 0 0 2,-2 c 0,-3.608 0.044,-7.215 0.046,-10.823 a 2,2 0 0 0 -4,0 c 0,3.608 -0.046,7.215 -0.046,10.823 l 2,-2 h -11 l 2,2 v -10.8 l -2,2 c 3.682,0 7.363,-0.02 11.044,-0.021 a 2,2 0 0 0 0,-4 z"
         id="path873" />
      <path
         class="c"
         d="m 79.921,160.3 c -3.681,0 -7.363,0.02 -11.044,0.021 a 2.029,2.029 0 0 0 -2,2 v 10.8 a 2.028,2.028 0 0 0 2,2 h 11 a 2.028,2.028 0 0 0 2,-2 c 0,-3.607 0.044,-7.214 0.047,-10.822 a 2,2 0 0 0 -4,0 c 0,3.608 -0.046,7.215 -0.047,10.822 l 2,-2 h -11 l 2,2 v -10.8 l -2,2 c 3.681,0 7.363,-0.02 11.044,-0.021 a 2,2 0 1 0 0,-4 z"
         id="path875" />
      <path
         class="c"
         d="m 233.239,209.4 c 2.574,0 2.578,-4 0,-4 -2.578,0 -2.578,4 0,4 z"
         id="path877" />
      <path
         class="c"
         d="m 130.744,134.6 h 101.467 c 2.574,0 2.579,-4 0,-4 H 130.744 c -2.573,0 -2.578,4 0,4 z"
         id="path879" />
      <path
         class="c"
         d="m 130.744,123.781 h 101.467 c 2.574,0 2.579,-4 0,-4 H 130.744 c -2.573,0 -2.578,4 0,4 z"
         id="path881" />
      <path
         class="c"
         d="m 130.744,155.013 h 101.467 c 2.574,0 2.579,-4 0,-4 H 130.744 c -2.573,0 -2.578,4 0,4 z"
         id="path883" />
      <path
         class="c"
         d="m 130.744,144.191 h 101.467 c 2.574,0 2.579,-4 0,-4 H 130.744 c -2.573,0 -2.578,4 0,4 z"
         id="path885" />
      <path
         class="c"
         d="m 130.744,175.422 h 101.467 c 2.574,0 2.579,-4 0,-4 H 130.744 c -2.573,0 -2.578,4 0,4 z"
         id="path887" />
      <path
         class="c"
         d="m 130.744,164.6 h 101.467 c 2.574,0 2.579,-4 0,-4 H 130.744 c -2.573,0 -2.578,4 0,4 z"
         id="path889" />
      <path
         class="c"
         d="m 278.191,180.131 v 27.347 c 0,2.574 4,2.578 4,0 v -27.347 c 0,-2.573 -4,-2.578 -4,0 z"
         id="path891" />
      <path
         class="c"
         d="m 258.864,180.131 v 27.347 c 0,2.574 4,2.578 4,0 v -27.347 c 0,-2.573 -4,-2.578 -4,0 z"
         id="path893" />
      <path
         class="c"
         d="m 297.519,180.131 v 27.347 c 0,2.574 4,2.578 4,0 v -27.347 c 0,-2.573 -4,-2.578 -4,0 z"
         id="path895" />
      <path
         class="c"
         d="m 316.847,180.131 v 27.347 c 0,2.574 4,2.578 4,0 v -27.347 c 0,-2.573 -4,-2.578 -4,0 z"
         id="path897" />
      <path
         class="c"
         d="m 336.175,180.131 v 27.347 c 0,2.574 4,2.578 4,0 v -27.347 c 0,-2.573 -4,-2.578 -4,0 z"
         id="path899" />
      <path
         class="c"
         d="m 355.5,180.131 v 27.347 c 0,2.574 4,2.578 4,0 v -27.347 c 0,-2.573 -4,-2.578 -4,0 z"
         id="path901" />
      <path
         class="c"
         d="m 388.711,171.89 c 0,-4.585 -0.032,-9.169 -0.051,-13.754 q -0.06,-13.935 -0.125,-27.869 -0.075,-16.692 -0.15,-33.384 -0.067,-15.151 -0.13,-30.3 -0.037,-9.289 -0.064,-18.578 v -1.089 a 2.03,2.03 0 0 0 -2,-2 h -80.064 a 2.03,2.03 0 0 0 -2,2 q 0,5.519 0.015,11.037 0.021,15.265 0.037,30.531 0.014,12.68 0.025,25.36 c 0,2.574 4,2.578 4,0 q -0.018,-20.452 -0.042,-40.906 -0.013,-11.106 -0.03,-22.213 0,-1.9 0,-3.809 l -2,2 h 80.064 l -2,-2 c 0,5.541 0.03,11.081 0.051,16.622 q 0.058,14.672 0.125,29.344 0.073,16.736 0.15,33.469 0.066,14.5 0.13,28.993 0.036,7.947 0.064,15.892 v 0.654 c 0,2.574 4,2.578 4,0 z"
         id="path903" />
      <path
         class="a"
         d="m 372.337,74.9 h -53.43"
         id="path905" />
      <path
         class="c"
         d="m 372.337,72.9 h -53.43 c -2.573,0 -2.578,4 0,4 h 53.43 c 2.574,0 2.578,-4 0,-4 z"
         id="path907" />
      <path
         class="a"
         d="M 386.042,58.74 H 306.127"
         id="path909" />
      <path
         class="c"
         d="m 386.042,56.74 h -79.915 c -2.574,0 -2.578,4 0,4 h 79.915 c 2.573,0 2.578,-4 0,-4 z"
         id="path911" />
      <path
         class="a"
         d="m 372.337,87.287 h -53.43"
         id="path913" />
      <path
         class="c"
         d="m 372.337,85.287 h -53.43 c -2.573,0 -2.578,4 0,4 h 53.43 c 2.574,0 2.578,-4 0,-4 z"
         id="path915" />
      <path
         class="a"
         d="m 372.337,99.675 h -53.43"
         id="path917" />
      <path
         class="c"
         d="m 372.337,97.675 h -53.43 c -2.573,0 -2.578,4 0,4 h 53.43 c 2.574,0 2.578,-4 0,-4 z"
         id="path919" />
      <path
         class="a"
         d="M 370,189.592 H 248.369"
         id="path921" />
      <path
         class="c"
         d="M 370,187.592 H 248.369 c -2.574,0 -2.578,4 0,4 H 370 c 2.574,0 2.578,-4 0,-4 z"
         id="path923" />
      <path
         class="a"
         d="M 370,180.131 H 248.369"
         id="path925" />
      <path
         class="c"
         d="M 370,178.131 H 248.369 c -2.574,0 -2.578,4 0,4 H 370 c 2.574,0 2.578,-4 0,-4 z"
         id="path927" />
      <path
         class="c"
         d="m 429.636,183.981 v 22.682 c 0,2.574 4,2.578 4,0 v -22.682 c 0,-2.573 -4,-2.578 -4,0 z"
         id="path929" />
      <path
         class="c"
         d="m 442.062,184.808 v 21.311 c 0,2.574 4,2.579 4,0 v -21.311 c 0,-2.573 -4,-2.578 -4,0 z"
         id="path931" />
      <path
         class="c"
         d="m 454.488,183.981 v 22.682 c 0,2.574 4,2.578 4,0 v -22.682 c 0,-2.573 -4,-2.578 -4,0 z"
         id="path933" />
      <path
         class="c"
         d="m 484.909,171.89 c 0,-8.456 -0.1,-16.913 -0.161,-25.368 q -0.135,-19 -0.257,-38 c -0.028,-4.733 -0.058,-9.466 -0.059,-14.2 a 2.029,2.029 0 0 0 -2,-2 h -78.907 a 2.03,2.03 0 0 0 -2,2 q 0,4.914 0.013,9.828 0.015,11.392 0.031,22.786 0.018,14.475 0.037,28.949 0.017,14.093 0.032,28.186 0.011,10.464 0.016,20.927 v 1.765 c 0,2.574 4,2.578 4,0 q 0,-9.759 -0.013,-19.517 -0.014,-13.887 -0.031,-27.774 -0.018,-14.616 -0.037,-29.232 -0.015,-11.9 -0.032,-23.8 -0.006,-3.94 -0.011,-7.881 c 0,-1.3 0.1,-2.651 0,-3.947 -0.008,-0.095 0,-0.194 0,-0.29 l -2,2 h 78.907 l -2,-2 c 0,10.036 0.092,20.073 0.161,30.108 q 0.124,18.339 0.257,36.676 c 0.024,3.595 0.058,7.19 0.059,10.785 0,2.574 4,2.578 4,0 z"
         id="path935" />
      <path
         class="a"
         d="M 482.909,183.6 H 405.216"
         id="path937" />
      <path
         class="c"
         d="m 482.909,181.6 h -77.693 c -2.574,0 -2.578,4 0,4 h 77.693 c 2.573,0 2.578,-4 0,-4 z"
         id="path939" />
      <path
         class="a"
         d="M 482.909,170.39 H 405.216"
         id="path941" />
      <path
         class="c"
         d="m 482.909,168.39 h -77.693 c -2.574,0 -2.578,4 0,4 h 77.693 c 2.573,0 2.578,-4 0,-4 z"
         id="path943" />
      <path
         class="a"
         d="M 456.488,183.981 H 431.636"
         id="path945" />
      <path
         class="c"
         d="m 456.488,181.981 h -24.852 c -2.574,0 -2.578,4 0,4 h 24.852 c 2.574,0 2.578,-4 0,-4 z"
         id="path947" />
      <path
         class="c"
         d="m 335.148,132.569 c -4.056,0 -8.113,0.022 -12.17,0.023 a 2.029,2.029 0 0 0 -2,2 v 11.9 a 2.03,2.03 0 0 0 2,2 H 335.1 a 2.029,2.029 0 0 0 2,-2 c 0,-3.975 0.049,-7.95 0.051,-11.926 a 2,2 0 1 0 -4,0 c 0,3.976 -0.05,7.951 -0.051,11.926 l 2,-2 h -12.122 l 2,2 v -11.9 l -2,2 c 4.057,0 8.114,-0.022 12.17,-0.023 a 2,2 0 0 0 0,-4 z"
         id="path949" />
      <path
         class="c"
         d="m 357.014,132.569 c -4.057,0 -8.114,0.022 -12.17,0.023 a 2.029,2.029 0 0 0 -2,2 v 11.9 a 2.029,2.029 0 0 0 2,2 h 12.118 a 2.028,2.028 0 0 0 2,-2 c 0,-3.975 0.049,-7.95 0.052,-11.926 a 2,2 0 1 0 -4,0 c 0,3.976 -0.051,7.951 -0.052,11.926 l 2,-2 h -12.118 l 2,2 v -11.9 l -2,2 c 4.056,0 8.113,-0.022 12.17,-0.023 a 2,2 0 0 0 0,-4 z"
         id="path951" />
      <path
         class="c"
         d="m 234.672,207.4 c 0,-11.332 -0.1,-22.664 -0.161,-33.995 q -0.13,-23.7 -0.257,-47.392 c -0.025,-5.126 -0.058,-10.252 -0.059,-15.378 a 2.028,2.028 0 0 0 -2,-2 H 130.567 a 2.029,2.029 0 0 0 -2,2 q 0,14.135 0.044,28.27 0.039,24.624 0.07,49.248 0.01,9.709 0.015,19.417 c 0,2.574 4,2.578 4,0 q 0,-20.441 -0.043,-40.881 -0.033,-22.842 -0.07,-45.684 -0.007,-5.186 -0.016,-10.37 l -2,2 H 232.2 l -2,-2 c 0,11.584 0.1,23.169 0.161,34.753 q 0.129,23.589 0.257,47.18 c 0.025,4.944 0.058,9.888 0.059,14.832 0,2.574 4,2.578 4,0 z"
         id="path953" />
      <path
         class="c"
         d="m 477.028,94.624 c -5.9,6.644 -11.653,13.416 -17.532,20.077 -1.119,1.267 -2.228,2.547 -3.39,3.775 -1.769,1.869 1.054,4.7 2.828,2.828 6.156,-6.5 11.868,-13.467 17.748,-20.219 1.056,-1.213 2.107,-2.43 3.175,-3.633 1.7,-1.919 -1.115,-4.758 -2.829,-2.828 z"
         id="path955" />
      <path
         class="c"
         d="m 479.925,106.757 c -2.5,2.81 -4.929,5.675 -7.417,8.492 -0.473,0.536 -0.942,1.078 -1.434,1.6 a 2.0004051,2.0004051 0 0 0 2.829,2.829 c 2.6,-2.752 5.02,-5.7 7.507,-8.553 0.447,-0.513 0.892,-1.028 1.343,-1.537 a 2,2 0 1 0 -2.828,-2.828 z"
         id="path957" />
      <path
         class="c"
         d="m 432.208,142.92 c -6.237,7.026 -12.322,14.186 -18.539,21.23 -1.215,1.378 -2.42,2.769 -3.683,4.1 -1.769,1.869 1.055,4.7 2.829,2.828 6.51,-6.878 12.552,-14.243 18.77,-21.384 1.148,-1.318 2.291,-2.642 3.452,-3.949 1.7,-1.919 -1.115,-4.758 -2.829,-2.829 z"
         id="path959" />
      <path
         class="d"
         d="m 389.191,172.8 a 3.474,3.474 0 0 0 -4.25,0 21.042,21.042 0 0 0 -6.594,8.82 17,17 0 0 0 -0.97,3.246 27.167,27.167 0 0 0 -0.332,3.211 13.25,13.25 0 0 0 0.454,5.628 6.837,6.837 0 0 0 3.239,3.574 18.069,18.069 0 0 0 6.329,1.148 19.866,19.866 0 0 0 6.329,-1.148 6.839,6.839 0 0 0 3.24,-3.574 13.266,13.266 0 0 0 0.453,-5.628 27.166,27.166 0 0 0 -0.331,-3.211 17,17 0 0 0 -0.971,-3.246 21.041,21.041 0 0 0 -6.596,-8.82 z"
         id="path961" />
      <path
         class="e"
         d="m 383.361,207.151 v -8.378 h 7.412 v 8.378"
         id="path963" />
      <path
         class="c"
         d="m 390.2,171.077 c -5.421,-3.711 -10.865,3.853 -12.933,8.084 a 22.93,22.93 0 0 0 -2.222,8.921 c -0.194,3.095 -0.06,6.171 1.968,8.687 3.046,3.78 8.736,4 13.181,3.369 2.483,-0.35 4.812,-1.01 6.561,-2.935 2.155,-2.371 2.542,-5.375 2.374,-8.463 a 23.855,23.855 0 0 0 -2.44,-9.936 22.507,22.507 0 0 0 -6.084,-7.414 2.065,2.065 0 0 0 -2.829,0 2.013,2.013 0 0 0 0,2.828 19.05,19.05 0 0 1 6.97,10.769 17.717,17.717 0 0 1 0.223,7.361 4.735,4.735 0 0 1 -3.319,3.446 c -3,0.825 -6.825,1.042 -9.753,-0.174 a 5.034,5.034 0 0 1 -2.915,-4.459 21.3,21.3 0 0 1 0.668,-7.2 19.041,19.041 0 0 1 3.311,-6.4 c 1.121,-1.425 3.23,-4.387 5.22,-3.025 2.13,1.452 4.133,-2.012 2.019,-3.459 z"
         id="path965" />
      <path
         class="c"
         d="m 388.593,198.773 v 8.378 a 2,2 0 0 0 4,0 v -8.378 a 2,2 0 1 0 -4,0 z"
         id="path967" />
      <path
         class="c"
         d="m 381.181,198.773 v 8.378 a 2,2 0 0 0 4,0 v -8.378 a 2,2 0 1 0 -4,0 z"
         id="path969" />
      <path
         class="d"
         d="m 117.065,172.8 a 3.474,3.474 0 0 0 -4.25,0 21.042,21.042 0 0 0 -6.594,8.82 17,17 0 0 0 -0.97,3.246 27.167,27.167 0 0 0 -0.332,3.211 13.25,13.25 0 0 0 0.454,5.628 6.837,6.837 0 0 0 3.239,3.574 18.069,18.069 0 0 0 6.329,1.148 19.866,19.866 0 0 0 6.329,-1.148 6.839,6.839 0 0 0 3.24,-3.574 13.266,13.266 0 0 0 0.453,-5.628 27.166,27.166 0 0 0 -0.331,-3.211 17,17 0 0 0 -0.971,-3.246 21.041,21.041 0 0 0 -6.596,-8.82 z"
         id="path971" />
      <path
         class="e"
         d="m 111.235,207.151 v -8.378 h 7.412 v 8.378"
         id="path973" />
      <path
         class="c"
         d="m 118.074,171.077 c -5.421,-3.711 -10.865,3.853 -12.933,8.084 a 22.93,22.93 0 0 0 -2.222,8.921 c -0.194,3.095 -0.06,6.171 1.968,8.687 3.046,3.78 8.736,4 13.181,3.369 2.483,-0.35 4.812,-1.01 6.561,-2.935 2.155,-2.371 2.542,-5.375 2.374,-8.463 a 23.855,23.855 0 0 0 -2.44,-9.936 22.507,22.507 0 0 0 -6.084,-7.414 2.065,2.065 0 0 0 -2.829,0 2.013,2.013 0 0 0 0,2.828 19.05,19.05 0 0 1 6.97,10.769 17.717,17.717 0 0 1 0.223,7.361 4.735,4.735 0 0 1 -3.319,3.446 c -3,0.825 -6.825,1.042 -9.753,-0.174 a 5.034,5.034 0 0 1 -2.915,-4.459 21.3,21.3 0 0 1 0.668,-7.2 19.041,19.041 0 0 1 3.311,-6.4 c 1.121,-1.425 3.23,-4.387 5.22,-3.025 2.13,1.452 4.133,-2.012 2.019,-3.459 z"
         id="path975" />
      <path
         class="c"
         d="m 116.467,198.773 v 8.378 a 2,2 0 0 0 4,0 v -8.378 a 2,2 0 0 0 -4,0 z"
         id="path977" />
      <path
         class="c"
         d="m 109.055,198.773 v 8.378 a 2,2 0 0 0 4,0 v -8.378 a 2,2 0 1 0 -4,0 z"
         id="path979" />
      <path
         class="d"
         d="m 485,172.8 a 3.474,3.474 0 0 0 -4.25,0 21.042,21.042 0 0 0 -6.594,8.82 17,17 0 0 0 -0.97,3.246 27.167,27.167 0 0 0 -0.332,3.211 13.25,13.25 0 0 0 0.454,5.628 6.837,6.837 0 0 0 3.239,3.574 18.069,18.069 0 0 0 6.329,1.148 19.866,19.866 0 0 0 6.329,-1.148 6.839,6.839 0 0 0 3.24,-3.574 13.266,13.266 0 0 0 0.453,-5.628 27.166,27.166 0 0 0 -0.331,-3.211 17,17 0 0 0 -0.971,-3.246 A 21.041,21.041 0 0 0 485,172.8 Z"
         id="path981" />
      <path
         class="e"
         d="m 479.172,207.151 v -8.378 h 7.412 v 8.378"
         id="path983" />
      <path
         class="c"
         d="m 486.011,171.077 c -5.421,-3.711 -10.865,3.853 -12.933,8.084 a 22.93,22.93 0 0 0 -2.222,8.921 c -0.194,3.095 -0.06,6.171 1.968,8.687 3.046,3.78 8.736,4 13.181,3.369 2.483,-0.35 4.812,-1.01 6.561,-2.935 2.155,-2.371 2.542,-5.375 2.374,-8.463 a 23.855,23.855 0 0 0 -2.44,-9.936 22.507,22.507 0 0 0 -6.084,-7.414 2.065,2.065 0 0 0 -2.829,0 2.013,2.013 0 0 0 0,2.828 19.05,19.05 0 0 1 6.97,10.769 17.717,17.717 0 0 1 0.223,7.361 4.735,4.735 0 0 1 -3.319,3.446 c -3,0.825 -6.825,1.042 -9.753,-0.174 a 5.034,5.034 0 0 1 -2.915,-4.459 21.3,21.3 0 0 1 0.668,-7.2 19.041,19.041 0 0 1 3.311,-6.4 c 1.121,-1.425 3.23,-4.387 5.22,-3.025 2.13,1.452 4.133,-2.012 2.019,-3.459 z"
         id="path985" />
      <path
         class="c"
         d="m 484.4,198.773 v 8.378 a 2,2 0 1 0 4,0 v -8.378 a 2,2 0 0 0 -4,0 z"
         id="path987" />
      <path
         class="c"
         d="m 476.992,198.773 v 8.378 a 2,2 0 0 0 4,0 v -8.378 a 2,2 0 1 0 -4,0 z"
         id="path989" />
      <path
         class="d"
         d="m 17.065,172.8 a 3.474,3.474 0 0 0 -4.25,0 21.042,21.042 0 0 0 -6.594,8.82 17,17 0 0 0 -0.97,3.246 27.167,27.167 0 0 0 -0.332,3.211 13.25,13.25 0 0 0 0.454,5.628 6.837,6.837 0 0 0 3.239,3.574 18.069,18.069 0 0 0 6.329,1.148 19.866,19.866 0 0 0 6.329,-1.148 6.839,6.839 0 0 0 3.24,-3.574 13.266,13.266 0 0 0 0.453,-5.628 27.166,27.166 0 0 0 -0.331,-3.211 17,17 0 0 0 -0.971,-3.246 21.041,21.041 0 0 0 -6.596,-8.82 z"
         id="path991" />
      <path
         class="e"
         d="m 11.235,207.151 v -8.378 h 7.412 v 8.378"
         id="path993" />
      <path
         class="c"
         d="m 18.074,171.077 c -5.421,-3.711 -10.865,3.853 -12.933,8.084 a 22.93,22.93 0 0 0 -2.222,8.921 c -0.194,3.095 -0.06,6.171 1.968,8.687 3.046,3.78 8.736,4 13.181,3.369 2.483,-0.35 4.812,-1.01 6.561,-2.935 2.155,-2.371 2.542,-5.375 2.374,-8.463 a 23.855,23.855 0 0 0 -2.44,-9.936 22.507,22.507 0 0 0 -6.084,-7.414 2.065,2.065 0 0 0 -2.829,0 2.013,2.013 0 0 0 0,2.828 19.05,19.05 0 0 1 6.97,10.769 17.717,17.717 0 0 1 0.223,7.361 4.735,4.735 0 0 1 -3.319,3.446 c -3,0.825 -6.825,1.042 -9.753,-0.174 a 5.034,5.034 0 0 1 -2.915,-4.459 21.3,21.3 0 0 1 0.668,-7.2 19.041,19.041 0 0 1 3.311,-6.4 c 1.121,-1.425 3.23,-4.387 5.22,-3.025 2.13,1.452 4.133,-2.012 2.019,-3.459 z"
         id="path995" />
      <path
         class="c"
         d="m 16.467,198.773 v 8.378 a 2,2 0 0 0 4,0 v -8.378 a 2,2 0 0 0 -4,0 z"
         id="path997" />
      <path
         class="c"
         d="m 9.055,198.773 v 8.378 a 2,2 0 0 0 4,0 v -8.378 a 2,2 0 0 0 -4,0 z"
         id="path999" />
      <path
         class="a"
         d="m 433.777,45.179 a 9.941,9.941 0 0 1 -10.669,-4.6 c -2.027,-3.517 1.736,-8.88 4.873,-7.416 -0.949,-1.911 0.243,-5.056 1.934,-6.357 3.534,-2.718 9.087,-1.162 9.989,-0.621 -0.241,-1.408 1.936,-5.977 9.964,-5.977 5.8,0 9.266,4.047 9.946,5.777 l 0.17,0.433 a 9.536,9.536 0 0 1 8.464,-0.105 8.241,8.241 0 0 1 4.27,6.923 c 0.095,3.187 -1.253,6.272 -3.928,7.292 a 8.685,8.685 0 0 1 -5.549,0.233 7.027,7.027 0 0 1 -3.326,5.436 17.468,17.468 0 0 1 -6.836,2.157 38.7,38.7 0 0 1 -8.429,-0.115 17.691,17.691 0 0 1 -9.036,-3.6 8.25,8.25 0 0 1 -1.837,0.54 z"
         id="path1001" />
      <path
         class="f"
         d="m 433.245,43.251 a 8.2,8.2 0 0 1 -7.9,-2.883 3.329,3.329 0 0 1 -0.315,-3.858 3.609,3.609 0 0 1 1.141,-1.328 1.05,1.05 0 0 1 1.277,-0.089 c 1.825,0.75 2.855,-1.564 2.259,-2.938 -0.394,-0.909 0.275,-2.333 0.786,-3.063 a 4.622,4.622 0 0 1 3.04,-1.71 9.793,9.793 0 0 1 3.281,-0.014 11.476,11.476 0 0 1 1.432,0.319 q 0.312,0.09 0.618,0.2 c 0.211,0.076 -0.37,-0.2 0.03,0.025 1.673,0.926 3.161,-0.6 2.938,-2.259 0.108,0.8 0.081,0.307 0.058,0.184 0.041,0.22 -0.138,0.455 0,0.105 0.064,-0.165 0.275,-0.7 0.07,-0.276 a 5.574,5.574 0 0 1 0.5,-0.838 c -0.186,0.258 0.323,-0.351 0.435,-0.461 a 8.969,8.969 0 0 1 5.156,-2.074 10.725,10.725 0 0 1 7.222,1.545 9.328,9.328 0 0 1 2,1.8 4.57,4.57 0 0 1 0.473,0.672 c 0.088,0.138 0.16,0.286 0.236,0.431 -0.2,-0.388 -0.009,-0.019 0.081,0.211 a 2.041,2.041 0 0 0 2.938,1.2 c 3.853,-1.906 8.867,-0.167 9.648,4.331 a 6.519,6.519 0 0 1 -1.333,5.338 c -1.423,1.522 -3.669,1.383 -5.536,1.019 a 2.036,2.036 0 0 0 -2.531,1.928 c -0.4,4.9 -7.239,5.707 -11,5.771 -4.4,0.075 -9.695,-0.3 -13.214,-3.306 a 2,2 0 0 0 -1.946,-0.514 10.1,10.1 0 0 1 -1.837,0.538 c -2.52,0.513 -1.453,4.369 1.064,3.857 a 10.207,10.207 0 0 0 1.837,-0.538 l -1.946,-0.514 c 4.711,4.018 11.473,4.787 17.439,4.422 6.009,-0.368 13.038,-2.77 13.6,-9.716 l -2.532,1.929 c 3.218,0.627 6.645,0.56 9.19,-1.812 2.406,-2.242 3.173,-5.956 2.662,-9.1 a 10.123,10.123 0 0 0 -5.6,-7.433 11.672,11.672 0 0 0 -9.984,0.346 l 2.938,1.2 c -2.293,-5.837 -8.8,-8.275 -14.694,-7.5 -4.057,0.537 -9.914,3.345 -9.244,8.325 l 2.938,-2.258 a 12.77,12.77 0 0 0 -9.731,-0.569 c -4.058,1.5 -6.737,6.113 -4.928,10.283 l 2.259,-2.938 c -2.49,-1.023 -5.022,0.538 -6.465,2.525 a 7.442,7.442 0 0 0 -0.868,7.426 c 2.356,4.938 8.033,6.793 13.129,5.922 a 2.017,2.017 0 0 0 1.4,-2.46 2.046,2.046 0 0 0 -2.471,-1.403 z"
         id="path1003" />
      <path
         class="f"
         d="m 438.428,39.812 a 6.489,6.489 0 0 0 9.012,2.417 2.0004048,2.0004048 0 1 0 -2.019,-3.454 4.137,4.137 0 0 1 -0.62,0.339 l 0.478,-0.2 a 4.357,4.357 0 0 1 -1.051,0.288 l 0.532,-0.072 a 4.822,4.822 0 0 1 -1.253,-0.007 l 0.532,0.071 a 5.052,5.052 0 0 1 -1.213,-0.339 l 0.478,0.2 a 4.864,4.864 0 0 1 -1.013,-0.6 l 0.405,0.313 a 4.4,4.4 0 0 1 -0.715,-0.716 l 0.313,0.405 a 4.139,4.139 0 0 1 -0.412,-0.668 2.011,2.011 0 0 0 -2.736,-0.717 2.05,2.05 0 0 0 -0.718,2.736 z"
         id="path1005" />
      <path
         class="f"
         d="m 144.127,37.016 a 7.135,7.135 0 0 0 9.111,10.818 L 150.5,45.1 a 6.055,6.055 0 0 0 0.943,7.291 c 1.932,2.126 4.959,2.661 7.665,3.012 5.846,0.759 12.033,-0.093 15.783,-5.086 a 2.013,2.013 0 0 0 -0.717,-2.736 2.049,2.049 0 0 0 -2.737,0.717 c -2.384,3.175 -6.828,3.591 -10.468,3.306 a 15.128,15.128 0 0 1 -5.452,-1.129 c -1.212,-0.6 -2.445,-2 -1.563,-3.356 1.1,-1.7 -1.065,-3.748 -2.736,-2.737 a 3.327,3.327 0 0 1 -4.042,-0.364 3.279,3.279 0 0 1 -0.221,-4.172 2.06,2.06 0 0 0 0,-2.828 2.015,2.015 0 0 0 -2.829,0 z"
         id="path1007" />
      <path
         class="a"
         d="m 165.124,38.425 c -4.562,0.83 -11.673,0.019 -15.55,-6.706 -2.955,-5.127 2.531,-12.946 7.1,-10.811 -1.383,-2.786 0.353,-7.372 2.818,-9.267 5.153,-3.963 13.248,-1.7 14.563,-0.907 -0.351,-2.052 2.822,-8.713 14.526,-8.713 8.461,0 13.508,5.9 14.5,8.422 l 0.248,0.631 a 13.9,13.9 0 0 1 12.339,-0.153 12.013,12.013 0 0 1 6.232,10.092 c 0.139,4.647 -1.826,9.145 -5.726,10.631 -2.884,1.1 -4.826,1 -8.086,0.341 a 10.255,10.255 0 0 1 -4.851,7.924 25.488,25.488 0 0 1 -9.967,3.144 56.487,56.487 0 0 1 -12.288,-0.168 c -4.283,-0.427 -9.954,-2.391 -13.18,-5.241 a 12.17,12.17 0 0 1 -2.678,0.781 z"
         id="path1009" />
      <path
         class="f"
         d="m 164.592,36.5 c -4.583,0.8 -9.881,-0.712 -12.675,-4.807 a 5.722,5.722 0 0 1 -0.344,-6.34 c 0.785,-1.436 2.6,-3.354 4.095,-2.716 a 2.019,2.019 0 0 0 2.737,-2.736 c -0.717,-1.582 0.135,-3.75 0.965,-5.11 a 7.283,7.283 0 0 1 4.84,-3.123 14.871,14.871 0 0 1 5.524,-0.1 17.8,17.8 0 0 1 2.269,0.51 c 0.292,0.087 0.578,0.186 0.865,0.288 0.245,0.088 -0.247,-0.144 0.182,0.1 1.656,0.939 3.179,-0.6 2.938,-2.258 0.124,0.852 0.083,-0.273 0.041,0.064 -0.042,0.337 0.118,-0.383 0.158,-0.544 0.052,-0.209 0.131,-0.339 0,-0.039 q 0.108,-0.242 0.232,-0.476 a 8.289,8.289 0 0 1 0.577,-0.923 c 0.207,-0.29 -0.1,0.1 0.144,-0.177 0.151,-0.174 0.305,-0.345 0.466,-0.51 0.228,-0.233 0.716,-0.677 0.815,-0.754 A 11.477,11.477 0 0 1 181.1,5.3 c 5.339,-2.206 12.08,-1.752 16.7,1.836 a 16.155,16.155 0 0 1 2.41,2.367 9.574,9.574 0 0 1 0.752,1.128 c 0.105,0.184 0.2,0.373 0.292,0.564 -0.263,-0.539 0.118,0.315 0.155,0.408 a 2.039,2.039 0 0 0 2.938,1.2 11.8,11.8 0 0 1 9.988,-0.324 10.051,10.051 0 0 1 5.436,7.248 10.492,10.492 0 0 1 -2.05,8.456 c -2.31,2.606 -5.974,2.491 -9.1,1.876 a 2.035,2.035 0 0 0 -2.532,1.928 c -0.553,7.665 -10.662,9.18 -16.643,9.321 -6.75,0.159 -14.856,-0.456 -20.228,-5.077 a 1.992,1.992 0 0 0 -1.946,-0.514 13.8,13.8 0 0 1 -2.674,0.782 c -2.523,0.5 -1.455,4.353 1.063,3.857 a 13.8,13.8 0 0 0 2.674,-0.782 l -1.946,-0.514 c 6.558,5.64 16.159,6.647 24.467,6.193 8.205,-0.449 18.533,-3.571 19.233,-13.266 l -2.532,1.929 c 3.634,0.715 7.35,0.869 10.681,-1.045 a 11.741,11.741 0 0 0 5.284,-7.823 c 1.492,-7.02 -2.008,-14.483 -9.048,-16.792 a 16.242,16.242 0 0 0 -12.146,1.093 l 2.938,1.2 C 203.132,5.124 197.707,1.3 192.035,0.336 186,-0.686 178.132,0.5 174.071,5.571 a 7.452,7.452 0 0 0 -1.94,5.7 l 2.938,-2.258 a 14.077,14.077 0 0 0 -4.974,-1.4 17.809,17.809 0 0 0 -8.247,0.573 10.826,10.826 0 0 0 -6.342,5.332 9.652,9.652 0 0 0 -0.555,8.407 l 2.736,-2.736 C 152.135,16.8 147.336,22.4 146.8,27.566 c -0.625,5.974 5.065,10.932 10.342,12.445 a 19.029,19.029 0 0 0 8.517,0.343 2.018,2.018 0 0 0 1.4,-2.461 2.045,2.045 0 0 0 -2.467,-1.393 z"
         id="path1011" />
      <path
         class="f"
         d="m 172.7,30.137 a 8.541,8.541 0 0 0 11.885,3.2 2.0004048,2.0004048 0 1 0 -2.019,-3.454 5.709,5.709 0 0 1 -0.543,0.323 1.412,1.412 0 0 0 -0.256,0.125 c 0.273,-0.23 0.311,-0.123 0.055,-0.031 a 5.643,5.643 0 0 1 -0.6,0.178 c -0.092,0.023 -0.184,0.043 -0.278,0.061 -0.205,0.039 -0.424,-0.02 0.082,0 -0.4,-0.014 -0.8,0.055 -1.2,0.029 -0.1,-0.007 -0.191,-0.017 -0.286,-0.025 -0.419,-0.035 0.487,0.1 0.076,0.007 -0.207,-0.045 -0.413,-0.083 -0.618,-0.138 -0.205,-0.055 -0.405,-0.12 -0.6,-0.193 -0.071,-0.027 -0.4,-0.149 -0.081,-0.028 0.319,0.121 0,-0.007 -0.074,-0.042 -0.376,-0.183 -0.7,-0.479 -1.073,-0.655 0.132,0.062 0.332,0.278 0.095,0.062 -0.071,-0.063 -0.143,-0.125 -0.212,-0.19 -0.166,-0.157 -0.315,-0.326 -0.468,-0.5 -0.23,-0.255 0.195,0.294 0.068,0.091 -0.05,-0.08 -0.11,-0.155 -0.161,-0.235 a 6,6 0 0 1 -0.337,-0.6 2.012,2.012 0 0 0 -2.736,-0.718 2.052,2.052 0 0 0 -0.718,2.737 z"
         id="path1013" />
      <path
         class="a"
         d="m 1.932,207.663 c 15.385,0 478.02,-0.17 492.563,-0.17"
         id="path1015" />
      <path
         class="c"
         d="m 1.932,209.663 q 8.276,0 16.55,0 l 36.913,-0.013 52.8,-0.018 62.948,-0.022 69,-0.025 69.334,-0.025 64.916,-0.023 55.506,-0.019 41.101,-0.018 21.709,-0.007 h 1.791 c 2.574,0 2.578,-4 0,-4 q -8.163,0 -16.327,0 l -36.739,0.012 -52.67,0.018 -62.87,0.023 -68.972,0.024 -69.352,0.025 -64.982,0.023 -55.621,0.019 -41.266,0.014 q -10.961,0 -21.92,0.007 H 1.932 c -2.574,0 -2.578,4 0,4 z"
         id="path1017" />
    </g>
    <text
       xml:space="preserve"
       transform="matrix(1.9565563,0,0,3.5654464,-993.34591,-150.5429)"
       id="text3849"
       style="font-style:normal;font-weight:normal;font-size:40px;line-height:1.25;font-family:sans-serif;white-space:pre;shape-inside:url(#rect3851);fill:#000000;fill-opacity:1;stroke:none"><tspan
         x="972.66797"
         y="86.89751"
         id="tspan29732"><tspan
           style="font-family:'Franklin Gothic Heavy';-inkscape-font-specification:'Franklin Gothic Heavy, '"
           id="tspan29730">Simple Blog</tspan></tspan></text>
  </g>
</svg>
